{"title":"Les aventuriers (1967) Fra x264 multisub","uid":5258238,"size":2431168832,"categoryP":"video","categoryS":"movies","magnet":"?xt=urn:btih:77436ae81d23da62c7662a567bbc45e11a67b8d6&amp;dn=Les+aventuriers+%281967%29+Fra+x264+multisub&amp;tr=udp%3A%2F%2Ftracker.openbittorrent.com%3A80&amp;tr=udp%3A%2F%2Fopen.demonii.com%3A1337&amp;tr=udp%3A%2F%2Ftracker.coppersurfer.tk%3A6969&amp;tr=udp%3A%2F%2Fexodus.desync.com%3A6969","seeders":3,"leechers":1,"uploader":"FatFreddy69","files":-1,"time":1262643064,"description":"Les aventuriers (1967)\n\n\nuser comments:\n &lt;a href=&quot; http://www.imdb.com/title/tt0061376/usercomments&quot; rel=&quot;nofollow&quot; target=&quot;_NEW&quot;&gt; http://www.imdb.com/title/tt0061376/usercomments&lt;/a&gt;\n\n\nRobert Enrico's second masterpiece. \n\ncast: Alain Delon, Lino Ventura...\n\n\n\nTwo adventurers and best friends, Roland and Manu, \n\nare the victims of a practical joke that costs Manu his pilot's license...\n\n &lt;a href=&quot; http://www.imdb.com/title/tt0061376/plotsummary&quot; rel=&quot;nofollow&quot; target=&quot;_NEW&quot;&gt; http://www.imdb.com/title/tt0061376/plotsummary&lt;/a&gt; \n\n\nscreen shots:\n &lt;a href=&quot;\nhttp://i.imagehost.org/0587/Les_aventuriers_1967_mkv1.jpg&quot; rel=&quot;nofollow&quot; target=&quot;_NEW&quot;&gt;\nhttp://i.imagehost.org/0587/Les_aventuriers_1967_mkv1.jpg&lt;/a&gt;\n &lt;a href=&quot;\nhttp://f.imagehost.org/0967/Les_aventuriers_1967_mkv2.jpg&quot; rel=&quot;nofollow&quot; target=&quot;_NEW&quot;&gt;\nhttp://f.imagehost.org/0967/Les_aventuriers_1967_mkv2.jpg&lt;/a&gt;\n &lt;a href=&quot;\nhttp://f.imagehost.org/0719/Les_aventuriers_1967_mkv3.jpg&quot; rel=&quot;nofollow&quot; target=&quot;_NEW&quot;&gt;\nhttp://f.imagehost.org/0719/Les_aventuriers_1967_mkv3.jpg&lt;/a&gt;\n\nFRANCAIS:\n\nRoland, Manu et LaÃƒÂ©titia, trois vieux amis, partent ÃƒÂ  l'aventure dans les \n\nmers du Sud au large du Congo.\n\n Des informations semblent supposÃƒÂ©es qu'il existe un avion accidentÃƒÂ©, a \n\ncoulÃƒÂ© avec une cargaison de diamants.\n\n Mais des mercenaires sont dÃƒÂ©jÃƒÂ  sur leurs traces.\n\n\nFormat                           : Matroska (mkv)\nFile size                        : 2.26 GiB\nDuration                         : 1h 48mn\nOverall bit rate                 : 2 996 Kbps\n\nVideo\nFormat/Info                      : AVC (Advanced Video Codec) \nCodec ID                         : V_MPEG4/ISO/AVC\nNominal bit rate                 : 2 800 Kbps\nWidth                            : 720 pixels\nHeight                           : 436 pixels\nDisplay aspect ratio             : 2.35:1\nFrame rate                       : 25.000 fps\nStream size                      : 2.07 GiB \nWriting library                  : x264 core 79\n\nAudio ( French )\nFormat/Info                      : Audio Coding 3 (AC3)\nBit rate mode                    : Constant\nBit rate                         : 192 Kbps\nChannel(s)                       : 2 channels, 48 kHz\nStream size                      : 149 MiB \n\nAudio: Francais\n\nSubtitles: English, Spanish, Portuguese, Czech, Romanian\n\n","torrent":{"xt":"urn:btih:77436ae81d23da62c7662a567bbc45e11a67b8d6","amp;dn":"Les+aventuriers+%281967%29+Fra+x264+multisub","amp;tr":["udp%3A%2F%2Ftracker.openbittorrent.com%3A80","udp%3A%2F%2Fopen.demonii.com%3A1337","udp%3A%2F%2Ftracker.coppersurfer.tk%3A6969","udp%3A%2F%2Fexodus.desync.com%3A6969"],"infoHash":"77436ae81d23da62c7662a567bbc45e11a67b8d6","infoHashBuffer":{"type":"Buffer","data":[119,67,106,232,29,35,218,98,199,102,42,86,123,188,69,225,26,103,184,214]},"announce":[],"urlList":[]}}